<svg xmlns="http://www.w3.org/2000/svg" height="40" viewBox="0 0 234 80.58"><defs><style>.cls-1{fill:#fff;}.cls-2{fill:none;}</style></defs><g id="Layer_2" data-name="Layer 2"><g id="Layer_1-2" data-name="Layer 1"><path class="cls-1" d="M34.37,50.79c0,1.5-.1,2.7-1.36,2.7H30.53c-1,0-.91-1.3-.91-2.1v-1.3h-.1c-1.36,2.35-6.77,4-9.7,4-11.11,0-19-7.5-19-18.4,0-9.8,8.29-17.8,19.2-17.8a25.67,25.67,0,0,1,11.76,2.6c.56.2.51.6.51.95v3.35a.69.69,0,0,1-.25.45l-1,.8c-.76.55-1-5.45-11.22-5.45-8.78.1-13.53,6.55-13.53,14.7,0,10,6.87,16.1,13.38,16.1,6.87,0,10-3.4,10-6.9a4.28,4.28,0,0,0-1.41-3.6c-1.37-1.3-3.74-.8-3.18-1.95l.35-.75c.25-.5.86-.45,1.46-.45h6.27c1.11,0,1.11.4,1.21,1.3Z"/><path class="cls-1" d="M39.18,40.28c0-.82-.29-1-1.23-1.16-.25,0-.29-.19-.21-.34l.15-.38a.33.33,0,0,1,.33-.15h4.87c.15,0,.35,0,.25.32l-.11.32c-.08.21-.23.23-.37.27a1.09,1.09,0,0,0-1,1.12v9.23c0,.82.29,1,1.23,1.16.25,0,.29.19.21.34l-.15.38a.34.34,0,0,1-.33.15H38c-.16,0-.35,0-.25-.32l.11-.32c.08-.21.23-.23.37-.27a1.09,1.09,0,0,0,1-1.12Z"/><path class="cls-1" d="M49.46,48.62c0,1.59.35,2,1.4,2h1.56c1.88,0,2.15-1.76,2.42-1.69l.48.16c.07,0,.11.09.11.17v1.86c0,.3-.36.47-.88.47h-9c-.16,0-.35,0-.25-.32l.11-.32c.08-.21.23-.23.37-.27a1.09,1.09,0,0,0,1-1.12V40.28c0-.82-.29-1-1.23-1.16-.25,0-.29-.19-.21-.34l.15-.38a.33.33,0,0,1,.33-.15h4.87c.15,0,.35,0,.25.32l-.11.32c-.08.21-.24.23-.37.27a1.09,1.09,0,0,0-1,1.12Z"/><path class="cls-1" d="M61,48.62c0,1.59.34,2,1.4,2h1.55c1.88,0,2.15-1.76,2.42-1.69l.48.16a.16.16,0,0,1,.12.17v1.86c0,.3-.37.47-.89.47H57c-.15,0-.34,0-.25-.32l.12-.32c.07-.21.23-.23.36-.27a1.09,1.09,0,0,0,1-1.12V40.28c0-.82-.29-1-1.23-1.16-.25,0-.29-.19-.21-.34L57,38.4a.34.34,0,0,1,.33-.15h4.88c.15,0,.34,0,.25.32l-.12.32c-.08.21-.23.23-.36.27a1.09,1.09,0,0,0-1,1.12Z"/><path class="cls-1" d="M85.16,50.76a1.28,1.28,0,0,1-.39.5,9.89,9.89,0,0,1-3.74.51c-4.38,0-7.37-2.85-7.37-7A7,7,0,0,1,81,38a8.76,8.76,0,0,1,4.51,1.16c.16.07.16.19.16.32v1.21a.3.3,0,0,1-.12.21l-.52.36c-.28.21-.92-2-4-2-2.9,0-4.41,2.28-4.41,5.38,0,3.8,2.24,5.91,4.85,5.91a5.51,5.51,0,0,0,3.8-1.31c.29-.27.71,0,.54.26Z"/><path class="cls-1" d="M101.14,44.63a7.05,7.05,0,0,1-7.29,7.14,6.57,6.57,0,0,1-6.7-6.69A7.08,7.08,0,0,1,94.54,38,6.52,6.52,0,0,1,101.14,44.63Zm-11.09-.21c0,4.22,1.84,6.12,4.16,6.12,2.88,0,4-3.2,4-5.66,0-4-2-5.63-4.1-5.63C91,39.25,90.05,42.52,90.05,44.42Z"/><path class="cls-1" d="M102.33,38.4a.37.37,0,0,1,.32-.15H106c.48,0,.73.37,1.07.77l7.12,8.88h0V40.28c0-.82-.29-1-1.23-1.16-.25,0-.29-.19-.21-.34l.15-.38a.34.34,0,0,1,.33-.15h3.49c.16,0,.35,0,.25.32l-.11.32c-.08.21-.23.23-.37.27a1.08,1.08,0,0,0-1,1.12V50.92c0,.38-.08.62-.43.62h-1.32c-.1,0-.21-.13-.81-.85l-7.29-9.2h0v8c0,.82.29,1,1.23,1.16.25,0,.29.19.21.34l-.15.38a.34.34,0,0,1-.33.15H103.1c-.16,0-.35,0-.25-.32l.11-.32c.08-.21.23-.23.37-.27a1.09,1.09,0,0,0,1-1.12V40.3a4.54,4.54,0,0,0-1.79-1.11c-.38-.11-.42-.24-.35-.41Z"/><path class="cls-1" d="M125.38,41.13c-.16.14-.52-.64-.77-1.14a1.76,1.76,0,0,0-1.75-1A1.86,1.86,0,0,0,121,40.41c-.21,1.37.79,2.07,2.36,3.12,2.09,1.38,3.36,2.43,3.42,4.19.1,2.8-2.36,4.05-5,4.05a9.43,9.43,0,0,1-2.73-.34c-1-.31-1-.32-1-.82V48.77c0-.21-.08-.49.11-.57l.61-.23c.22-.06.31.76.77,1.54a2.13,2.13,0,0,0,2,1.16A2.35,2.35,0,0,0,124,48.43c.1-1.66-1.63-2.61-3.12-3.65-1.14-.8-2.65-1.46-2.65-3.42,0-1.73,1.59-3.34,4.64-3.34a6,6,0,0,1,2.32.38c.58.22.89.4.85.72v1.4c0,.08-.06.14-.12.21Z"/><path class="cls-1" d="M135.22,49.51c0,.82.29,1,1.23,1.16.25,0,.29.19.21.34l-.15.38a.34.34,0,0,1-.33.15h-4.87c-.16,0-.35,0-.25-.32l.11-.32c.08-.21.23-.23.37-.27a1.09,1.09,0,0,0,1-1.12V39.57h-4.46c-.27,0-.52-.07-.27-.39l.43-.69a.73.73,0,0,1,.67-.24h10.82c.27,0,.52.07.27.39l-.42.69a.73.73,0,0,1-.67.24h-3.67Z"/><path class="cls-1" d="M153.36,51.54h-2.88c-.31,0-.44-.3-.54-.45l-3-5.28h-1.44v3.7c0,.82.29,1,1.23,1.16.25,0,.28.19.21.34l-.16.38c-.05.1-.15.15-.32.15h-4.88c-.15,0-.34,0-.25-.32l.12-.32c.07-.21.23-.23.36-.27a1.09,1.09,0,0,0,1-1.12V40.43c0-.8-.38-1.12-1.21-1.25-.29-.08-.46-.14-.36-.35l.15-.36a.35.35,0,0,1,.33-.22h6.68a3.26,3.26,0,0,1,3.57,3.26,4.2,4.2,0,0,1-2.63,3.88c1.72,3,3.28,5.09,4.05,5.53Zm-7.87-6.76h1.19c1.34,0,2.49-1,2.45-3.06,0-1.9-.92-2.45-2.11-2.45h-1.53Z"/><path class="cls-1" d="M158.73,46.41c0,1.87.55,4,3,4,2,0,3.15-1.26,3.15-4V40.28c0-.82-.29-1-1.23-1.16-.25,0-.29-.19-.21-.34l.15-.38a.34.34,0,0,1,.33-.15h3.57c.15,0,.35,0,.25.32l-.12.32c-.07.21-.23.23-.36.27a1.09,1.09,0,0,0-1,1.12v6.13c0,4.35-2.76,5.36-4.84,5.36-4.28,0-5.43-2.43-5.43-5.3V40.28c0-.82-.29-1-1.23-1.16-.25,0-.29-.19-.21-.34l.16-.38c0-.1.15-.15.32-.15h4.88c.15,0,.34,0,.25.32l-.12.32c-.08.21-.23.23-.36.27a1.09,1.09,0,0,0-1,1.12Z"/><path class="cls-1" d="M180.76,50.76a1.26,1.26,0,0,1-.38.5,10,10,0,0,1-3.75.51c-4.37,0-7.37-2.85-7.37-7a7,7,0,0,1,7.3-6.76,8.83,8.83,0,0,1,4.51,1.16c.15.07.15.19.15.32v1.21a.33.33,0,0,1-.11.21l-.52.36c-.29.21-.92-2-4-2-2.9,0-4.42,2.28-4.42,5.38,0,3.8,2.25,5.91,4.86,5.91a5.55,5.55,0,0,0,3.8-1.31c.29-.27.71,0,.54.26Z"/><path class="cls-1" d="M189.61,49.51c0,.82.28,1,1.22,1.16.25,0,.29.19.22.34l-.16.38a.33.33,0,0,1-.32.15h-4.88c-.15,0-.35,0-.25-.32l.12-.32c.07-.21.23-.23.36-.27a1.09,1.09,0,0,0,1-1.12V39.57h-4.45c-.27,0-.52-.07-.27-.39l.42-.69a.73.73,0,0,1,.67-.24H194.1c.27,0,.52.07.27.39l-.43.69a.73.73,0,0,1-.67.24h-3.66Z"/><path class="cls-1" d="M197.05,40.28c0-.82-.29-1-1.23-1.16-.25,0-.29-.19-.21-.34l.15-.38a.34.34,0,0,1,.33-.15H201c.15,0,.34,0,.25.32l-.12.32c-.08.21-.23.23-.36.27a1.09,1.09,0,0,0-1,1.12v9.23c0,.82.28,1,1.23,1.16.24,0,.28.19.21.34l-.16.38c0,.1-.15.15-.32.15h-4.88c-.15,0-.35,0-.25-.32l.12-.32c.07-.21.23-.23.36-.27a1.09,1.09,0,0,0,1-1.12Z"/><path class="cls-1" d="M217,44.63a7.05,7.05,0,0,1-7.29,7.14,6.57,6.57,0,0,1-6.7-6.69A7.07,7.07,0,0,1,210.41,38,6.52,6.52,0,0,1,217,44.63Zm-11.1-.21c0,4.22,1.85,6.12,4.17,6.12,2.88,0,4-3.2,4-5.66,0-4-2-5.63-4.11-5.63C206.82,39.25,205.91,42.52,205.91,44.42Z"/><path class="cls-1" d="M218.2,38.4a.35.35,0,0,1,.32-.15h3.3c.48,0,.73.37,1.08.77L230,47.9h0V40.28c0-.82-.29-1-1.23-1.16-.25,0-.29-.19-.21-.34l.15-.38a.34.34,0,0,1,.33-.15h3.49c.16,0,.35,0,.25.32l-.11.32c-.08.21-.23.23-.37.27a1.09,1.09,0,0,0-1,1.12V50.92c0,.38-.07.62-.42.62h-1.32c-.1,0-.22-.13-.81-.85l-7.29-9.2h0v8c0,.82.28,1,1.23,1.16.25,0,.28.19.21.34l-.16.38c-.05.1-.15.15-.32.15H219c-.15,0-.34,0-.25-.32l.12-.32c.08-.21.23-.23.36-.27a1.09,1.09,0,0,0,1-1.12V40.3a4.45,4.45,0,0,0-1.78-1.11c-.39-.11-.42-.24-.35-.41Z"/><path class="cls-1" d="M5.2,13.12c0,3.78-2.62,4.7-4.18,4.7v-1a2,2,0,0,0,1-.94,5.7,5.7,0,0,0,.36-2.16V2.14c0-.86-.3-1-1.28-1.22C.84.88.8.72.88.56L1,.16A.35.35,0,0,1,1.38,0H6.46c.16,0,.36,0,.26.34L6.6.68C6.52.9,6.36.92,6.22,1a1.15,1.15,0,0,0-1,1.18Z"/><path class="cls-1" d="M9.94,11.24a1.5,1.5,0,1,1-1.5,1.5A1.52,1.52,0,0,1,9.94,11.24Z"/><path class="cls-1" d="M15,2.3c0-.84-.4-1.18-1.26-1.32C13.48.9,13.3.84,13.4.62l.16-.38A.37.37,0,0,1,13.9,0h6.58C26.18,0,28,2.64,28,6.68a7.45,7.45,0,0,1-7.58,7.56,15,15,0,0,1-4.84-.48c-.34-.12-.54-.46-.54-1.06Zm2.82,8.86c0,1.52,1,1.88,2.54,1.88C23.52,13,25,10.28,25,6.72c0-4-1.7-5.52-4.84-5.52H17.86Z"/><path class="cls-1" d="M31,11.24a1.5,1.5,0,1,1-1.5,1.5A1.52,1.52,0,0,1,31,11.24Z"/><path class="cls-2" d="M211.77,71.18a1.3,1.3,0,0,0,0-1.84,1.25,1.25,0,0,0-.92-.38,1.29,1.29,0,0,0-.92.38,1.3,1.3,0,0,0,1.84,1.84Z"/><path class="cls-1" d="M211.44,71.58a1.79,1.79,0,0,0,1.27-.52,1.8,1.8,0,1,0-2.55,0A1.79,1.79,0,0,0,211.44,71.58Zm-.92-2.72a1.29,1.29,0,0,1,.92-.38,1.3,1.3,0,0,1,.92,2.22,1.3,1.3,0,1,1-1.84-1.84Z"/><path class="cls-1" d="M116.84,64.25a1.8,1.8,0,1,0-1.8-1.8A1.81,1.81,0,0,0,116.84,64.25Zm0-3.1a1.3,1.3,0,1,1-1.3,1.3A1.3,1.3,0,0,1,116.84,61.15Z"/><path class="cls-1" d="M23,71.75A1.8,1.8,0,1,0,21.19,70,1.8,1.8,0,0,0,23,71.75Zm0-3.1A1.3,1.3,0,1,1,21.69,70,1.3,1.3,0,0,1,23,68.65Z"/><path class="cls-1" d="M0,59v21.6H234V59Zm129.37,1.4v4.14H104.63V60.38Zm-109.68,16a7.37,7.37,0,0,1,0-13.21Zm6.1.23a7.45,7.45,0,0,1-2.81.55,7.52,7.52,0,0,1-2.81-.55V63A7.34,7.34,0,0,1,23,62.39a7.26,7.26,0,0,1,2.81.56Zm.49-.23V63.18a7.38,7.38,0,0,1,0,13.21Zm62.78-3.68-1.45,1.45H51.71l-1.49-1.45V65.93l1.49-1.45h35.9l1.45,1.45Zm38.31-5.38H106.64l-2-2v-.13h24.74v.13Zm56.25,5.42-1.45,1.45h-35.9l-1.49-1.45V66l1.49-1.45h35.9L183.62,66ZM204,69.6a7.39,7.39,0,0,1,7.39-7.39,7.27,7.27,0,0,1,2.69.51l-9.57,9.57A7.52,7.52,0,0,1,204,69.6Zm.72,3.16,9.84-9.83a7.43,7.43,0,0,1,3.59,3.7l-9.73,9.73A7.45,7.45,0,0,1,204.72,72.76ZM211.39,77a7.22,7.22,0,0,1-2.47-.45l9.42-9.41a7.35,7.35,0,0,1-7,9.86Z"/></g></g></svg>