<?xml version="1.0" standalone="no"?>
<!DOCTYPE svg PUBLIC "-//W3C//DTD SVG 20010904//EN"
 "http://www.w3.org/TR/2001/REC-SVG-20010904/DTD/svg10.dtd">
<svg version="1.0" xmlns="http://www.w3.org/2000/svg"
 width="2006.000000pt" height="2006.000000pt" viewBox="0 0 2006.000000 2006.000000"
 preserveAspectRatio="xMidYMid meet">
<metadata>
Created by potrace 1.14, written by Peter Selinger 2001-2017
</metadata>
<g transform="translate(0.000000,2006.000000) scale(0.100000,-0.100000)"
fill="#000000" stroke="none">
<path d="M11929 17286 c-2 -2 -63 -7 -136 -10 -72 -4 -140 -8 -150 -10 -10 -2
-54 -7 -98 -10 -91 -8 -159 -15 -195 -21 -14 -2 -45 -7 -70 -10 -49 -7 -192
-30 -255 -42 -37 -7 -206 -8 -855 -3 -214 2 -391 -3 -510 -15 -25 -2 -74 -7
-110 -10 -36 -4 -76 -8 -90 -10 -14 -2 -45 -7 -70 -10 -241 -32 -613 -117
-830 -188 -178 -59 -577 -215 -605 -237 -5 -4 -21 -11 -35 -15 -53 -16 -425
-198 -603 -294 -360 -195 -742 -440 -1086 -699 -91 -69 -168 -128 -171 -131
-3 -3 -39 -33 -80 -66 -348 -277 -818 -741 -1125 -1110 -84 -100 -295 -371
-355 -455 -559 -784 -973 -1624 -1250 -2539 -34 -112 -52 -180 -106 -391 -8
-32 -26 -106 -29 -120 -2 -8 -10 -44 -19 -80 -8 -36 -17 -76 -20 -90 -4 -22
-27 -142 -40 -206 -2 -12 -7 -37 -10 -55 -3 -19 -12 -74 -20 -124 -8 -49 -18
-110 -21 -135 -3 -25 -8 -56 -10 -70 -4 -23 -9 -62 -20 -150 -17 -137 -33
-326 -40 -465 l-3 -70 -44 -26 c-23 -14 -68 -39 -98 -56 -271 -148 -668 -425
-940 -654 -195 -165 -300 -261 -466 -426 -63 -61 -169 -160 -236 -219 -144
-127 -173 -152 -248 -219 -31 -27 -94 -84 -140 -125 -193 -173 -373 -348 -461
-450 -124 -143 -213 -305 -251 -454 -22 -88 -31 -250 -17 -332 15 -96 20 -116
45 -192 114 -338 418 -685 909 -1037 247 -177 628 -430 767 -510 10 -5 69 -41
130 -79 119 -73 398 -236 404 -236 3 0 21 -11 42 -23 20 -13 87 -50 147 -82
61 -33 142 -76 180 -97 120 -65 492 -247 685 -336 290 -132 831 -354 1000
-408 25 -8 54 -19 65 -25 49 -23 552 -183 765 -243 129 -36 251 -71 270 -76
82 -24 424 -103 580 -135 173 -35 325 -64 362 -70 15 -2 53 -9 85 -14 32 -6
78 -13 103 -17 77 -10 88 -12 117 -18 15 -3 51 -8 78 -12 28 -3 61 -7 75 -9
14 -2 51 -7 83 -10 32 -4 66 -8 75 -10 9 -1 46 -6 82 -9 36 -4 85 -9 110 -12
85 -9 135 -13 225 -19 50 -3 110 -8 135 -10 282 -26 1017 -25 1355 0 28 3 86
7 130 10 89 6 167 14 205 20 14 2 57 7 95 10 39 3 79 7 90 9 18 3 41 7 160 22
22 2 51 7 65 9 14 2 45 7 70 10 25 3 56 8 70 10 14 3 41 7 60 10 19 3 71 12
115 20 44 8 94 16 110 19 26 4 64 11 165 31 14 3 59 11 100 19 41 8 104 22
140 30 36 8 76 17 90 20 14 2 45 9 70 15 25 7 119 30 210 52 91 22 174 42 185
45 11 3 29 7 40 9 11 3 88 23 170 46 83 23 155 42 160 43 6 1 37 10 70 20 33
10 67 19 75 21 82 17 898 275 1230 389 107 37 202 69 210 71 8 2 94 31 190 65
96 34 193 68 215 75 68 23 288 102 318 114 16 6 31 11 35 11 9 0 174 60 194
71 10 5 23 9 29 9 6 0 25 6 42 14 18 8 97 38 177 66 205 73 601 219 625 229
11 5 130 51 265 102 135 50 301 114 370 141 69 27 130 51 135 52 6 2 19 7 30
11 11 5 115 45 230 91 504 197 1437 577 1620 659 17 8 172 74 345 148 630 270
858 376 1104 516 498 283 833 614 1013 1000 38 83 111 293 118 344 2 18 7 44
10 58 25 126 28 350 5 469 -43 230 -152 432 -325 605 -137 136 -279 232 -513
345 -99 48 -103 52 -98 78 22 109 23 624 1 842 -2 25 -7 83 -10 130 -4 47 -8
101 -10 120 -2 19 -7 67 -10 105 -4 39 -8 77 -10 85 -3 8 -7 42 -10 75 -3 33
-7 71 -10 85 -2 14 -7 45 -10 70 -6 47 -7 52 -25 160 -15 98 -20 123 -26 150
-3 14 -8 39 -10 55 -7 44 -11 64 -24 125 -6 30 -14 66 -16 80 -3 13 -14 61
-24 106 -11 45 -22 95 -25 111 -2 15 -13 58 -24 96 -11 37 -17 67 -15 67 3 0
0 8 -5 18 -6 11 -12 31 -15 46 -3 15 -17 68 -31 119 -15 51 -28 99 -30 107 -2
8 -22 74 -45 145 -133 419 -261 750 -419 1089 -28 59 -51 110 -51 113 0 9
-173 349 -236 463 l-66 121 40 34 c80 69 105 190 68 335 -20 76 -106 256 -167
350 -48 73 -167 224 -226 285 -127 134 -350 274 -600 375 -67 28 -88 41 -117
79 -19 25 -47 60 -61 76 -198 226 -232 263 -445 475 -317 316 -603 548 -936
760 -57 36 -111 71 -121 78 -16 11 -15 11 5 2 13 -6 28 -9 35 -7 7 2 -5 9 -25
16 -21 7 -120 54 -220 106 -173 89 -379 184 -480 224 -51 19 -215 69 -284 86
-11 3 -80 21 -154 41 -74 19 -166 42 -205 50 -38 9 -77 17 -85 19 -16 4 -162
34 -195 41 -11 2 -58 11 -105 19 -47 8 -96 17 -110 20 -41 7 -212 33 -257 39
-189 25 -334 41 -483 52 -41 3 -91 7 -110 10 -43 5 -776 15 -781 10z"/>
</g>
</svg>
